<svg width="550" height="217" viewBox="0 0 550 217" fill="none" xmlns="http://www.w3.org/2000/svg">
<rect y="17" width="550" height="20" rx="2" fill="white"/>
<rect y="77" width="550" height="20" rx="2" fill="white"/>
<rect y="137" width="550" height="20" rx="2" fill="white"/>
<rect y="197" width="550" height="20" rx="2" fill="white"/>
<rect y="17" width="461" height="20" rx="2" fill="#FF001E"/>
<rect y="77" width="419" height="20" rx="2" fill="#FF001E"/>
<rect y="137" width="523" height="20" rx="2" fill="#FF001E"/>
<rect y="197" width="370" height="20" rx="2" fill="#FF001E"/>
<path d="M10.654 13.104V16.198H9.688V14H1.134L1.12 16.198H0.154L0.168 13.104H0.658C1.302 13.0667 1.75 12.558 2.002 11.578C2.254 10.5887 2.408 9.18867 2.464 7.378L2.576 4.2H9.184V13.104H10.654ZM3.388 7.476C3.34133 8.96933 3.22467 10.2013 3.038 11.172C2.86067 12.1333 2.55733 12.7773 2.128 13.104H8.162V5.096H3.472L3.388 7.476ZM12.5712 6.636H13.5652V12.488L18.4792 6.636H19.3612V14H18.3672V8.148L13.4672 14H12.5712V6.636ZM25.6855 10.164C26.2082 10.2853 26.6095 10.4953 26.8895 10.794C27.1788 11.0927 27.3235 11.4567 27.3235 11.886C27.3235 12.3153 27.1742 12.698 26.8755 13.034C26.5862 13.37 26.1895 13.6313 25.6855 13.818C25.1815 13.9953 24.6262 14.084 24.0195 14.084C23.4875 14.084 22.9648 14.0093 22.4515 13.86C21.9382 13.7013 21.4902 13.4727 21.1075 13.174L21.4435 12.432C21.7795 12.684 22.1715 12.88 22.6195 13.02C23.0675 13.16 23.5202 13.23 23.9775 13.23C24.6588 13.23 25.2142 13.104 25.6435 12.852C26.0822 12.5907 26.3015 12.2407 26.3015 11.802C26.3015 11.41 26.1242 11.1067 25.7695 10.892C25.4148 10.668 24.9295 10.556 24.3135 10.556H23.0535V9.828H24.2575C24.8082 9.828 25.2515 9.72533 25.5875 9.52C25.9235 9.30533 26.0915 9.02067 26.0915 8.666C26.0915 8.274 25.9002 7.966 25.5175 7.742C25.1442 7.518 24.6542 7.406 24.0475 7.406C23.2542 7.406 22.4702 7.60667 21.6955 8.008L21.4155 7.238C22.2928 6.78067 23.2028 6.552 24.1455 6.552C24.7055 6.552 25.2095 6.636 25.6575 6.804C26.1148 6.96267 26.4695 7.19133 26.7215 7.49C26.9828 7.78867 27.1135 8.134 27.1135 8.526C27.1135 8.89933 26.9828 9.23067 26.7215 9.52C26.4695 9.80933 26.1242 10.024 25.6855 10.164ZM32.156 6.58C33.1174 6.58 33.8547 6.82267 34.368 7.308C34.8814 7.784 35.138 8.49333 35.138 9.436V14H34.186V12.852C33.962 13.2347 33.6307 13.5333 33.192 13.748C32.7627 13.9627 32.2494 14.07 31.652 14.07C30.8307 14.07 30.1774 13.874 29.692 13.482C29.2067 13.09 28.964 12.572 28.964 11.928C28.964 11.3027 29.188 10.7987 29.636 10.416C30.0934 10.0333 30.8167 9.842 31.806 9.842H34.144V9.394C34.144 8.75933 33.9667 8.27867 33.612 7.952C33.2574 7.616 32.7394 7.448 32.058 7.448C31.5914 7.448 31.1434 7.52733 30.714 7.686C30.2847 7.83533 29.916 8.04533 29.608 8.316L29.16 7.574C29.5334 7.25667 29.9814 7.014 30.504 6.846C31.0267 6.66867 31.5774 6.58 32.156 6.58ZM31.806 13.286C32.366 13.286 32.8467 13.16 33.248 12.908C33.6494 12.6467 33.948 12.2733 34.144 11.788V10.584H31.834C30.574 10.584 29.944 11.0227 29.944 11.9C29.944 12.3293 30.1074 12.67 30.434 12.922C30.7607 13.1647 31.218 13.286 31.806 13.286ZM37.8261 6.636H38.8201V12.488L43.7341 6.636H44.6161V14H43.6221V8.148L38.7221 14H37.8261V6.636ZM41.1721 5.572C40.5375 5.572 40.0335 5.41333 39.6601 5.096C39.2868 4.77867 39.0955 4.33067 39.0861 3.752H39.8001C39.8095 4.116 39.9401 4.41 40.1921 4.634C40.4441 4.84867 40.7708 4.956 41.1721 4.956C41.5735 4.956 41.9001 4.84867 42.1521 4.634C42.4135 4.41 42.5488 4.116 42.5581 3.752H43.2721C43.2628 4.33067 43.0668 4.77867 42.6841 5.096C42.3108 5.41333 41.8068 5.572 41.1721 5.572ZM47.5068 6.636H48.5008V9.898H53.1348V6.636H54.1288V14H53.1348V10.752H48.5008V14H47.5068V6.636ZM63.7821 14.07C63.0541 14.07 62.4008 13.9113 61.8221 13.594C61.2528 13.2767 60.8048 12.8333 60.4781 12.264C60.1515 11.6853 59.9881 11.0367 59.9881 10.318C59.9881 9.59933 60.1515 8.95533 60.4781 8.386C60.8048 7.81667 61.2528 7.37333 61.8221 7.056C62.4008 6.73867 63.0541 6.58 63.7821 6.58C64.4168 6.58 64.9815 6.706 65.4761 6.958C65.9801 7.20067 66.3768 7.56 66.6661 8.036L65.9241 8.54C65.6815 8.176 65.3735 7.90533 65.0001 7.728C64.6268 7.54133 64.2208 7.448 63.7821 7.448C63.2501 7.448 62.7695 7.56933 62.3401 7.812C61.9201 8.04533 61.5888 8.38133 61.3461 8.82C61.1128 9.25867 60.9961 9.758 60.9961 10.318C60.9961 10.8873 61.1128 11.3913 61.3461 11.83C61.5888 12.2593 61.9201 12.5953 62.3401 12.838C62.7695 13.0713 63.2501 13.188 63.7821 13.188C64.2208 13.188 64.6268 13.0993 65.0001 12.922C65.3735 12.7447 65.6815 12.474 65.9241 12.11L66.6661 12.614C66.3768 13.09 65.9801 13.454 65.4761 13.706C64.9721 13.9487 64.4075 14.07 63.7821 14.07ZM71.1668 6.58C72.1281 6.58 72.8655 6.82267 73.3788 7.308C73.8921 7.784 74.1488 8.49333 74.1488 9.436V14H73.1968V12.852C72.9728 13.2347 72.6415 13.5333 72.2028 13.748C71.7735 13.9627 71.2601 14.07 70.6628 14.07C69.8415 14.07 69.1881 13.874 68.7028 13.482C68.2175 13.09 67.9748 12.572 67.9748 11.928C67.9748 11.3027 68.1988 10.7987 68.6468 10.416C69.1041 10.0333 69.8275 9.842 70.8168 9.842H73.1548V9.394C73.1548 8.75933 72.9775 8.27867 72.6228 7.952C72.2681 7.616 71.7501 7.448 71.0688 7.448C70.6021 7.448 70.1541 7.52733 69.7248 7.686C69.2955 7.83533 68.9268 8.04533 68.6188 8.316L68.1708 7.574C68.5441 7.25667 68.9921 7.014 69.5148 6.846C70.0375 6.66867 70.5881 6.58 71.1668 6.58ZM70.8168 13.286C71.3768 13.286 71.8575 13.16 72.2588 12.908C72.6601 12.6467 72.9588 12.2733 73.1548 11.788V10.584H70.8448C69.5848 10.584 68.9548 11.0227 68.9548 11.9C68.9548 12.3293 69.1181 12.67 69.4448 12.922C69.7715 13.1647 70.2288 13.286 70.8168 13.286ZM76.8369 6.636H77.8309V12.488L82.7449 6.636H83.6269V14H82.6329V8.148L77.7329 14H76.8369V6.636ZM80.1829 5.572C79.5483 5.572 79.0443 5.41333 78.6709 5.096C78.2976 4.77867 78.1063 4.33067 78.0969 3.752H78.8109C78.8203 4.116 78.9509 4.41 79.2029 4.634C79.4549 4.84867 79.7816 4.956 80.1829 4.956C80.5843 4.956 80.9109 4.84867 81.1629 4.634C81.4243 4.41 81.5596 4.116 81.5689 3.752H82.2829C82.2736 4.33067 82.0776 4.77867 81.6949 5.096C81.3216 5.41333 80.8176 5.572 80.1829 5.572ZM91.6976 7.518H88.9116V14H87.9176V7.518H85.1316V6.636H91.6976V7.518ZM95.873 14.07C95.1636 14.07 94.5243 13.9113 93.955 13.594C93.3856 13.2673 92.9376 12.8193 92.611 12.25C92.2843 11.6807 92.121 11.0367 92.121 10.318C92.121 9.59933 92.2843 8.95533 92.611 8.386C92.9376 7.81667 93.3856 7.37333 93.955 7.056C94.5243 6.73867 95.1636 6.58 95.873 6.58C96.5823 6.58 97.2216 6.73867 97.791 7.056C98.3603 7.37333 98.8036 7.81667 99.121 8.386C99.4476 8.95533 99.611 9.59933 99.611 10.318C99.611 11.0367 99.4476 11.6807 99.121 12.25C98.8036 12.8193 98.3603 13.2673 97.791 13.594C97.2216 13.9113 96.5823 14.07 95.873 14.07ZM95.873 13.188C96.3956 13.188 96.8623 13.0713 97.273 12.838C97.693 12.5953 98.0196 12.2547 98.253 11.816C98.4863 11.3773 98.603 10.878 98.603 10.318C98.603 9.758 98.4863 9.25867 98.253 8.82C98.0196 8.38133 97.693 8.04533 97.273 7.812C96.8623 7.56933 96.3956 7.448 95.873 7.448C95.3503 7.448 94.879 7.56933 94.459 7.812C94.0483 8.04533 93.7216 8.38133 93.479 8.82C93.2456 9.25867 93.129 9.758 93.129 10.318C93.129 10.878 93.2456 11.3773 93.479 11.816C93.7216 12.2547 94.0483 12.5953 94.459 12.838C94.879 13.0713 95.3503 13.188 95.873 13.188ZM106.467 10.192C107.466 10.4253 107.965 11.0273 107.965 11.998C107.965 12.642 107.727 13.1367 107.251 13.482C106.775 13.8273 106.066 14 105.123 14H101.777V6.636H105.025C105.865 6.636 106.523 6.79933 106.999 7.126C107.475 7.45267 107.713 7.91933 107.713 8.526C107.713 8.92733 107.601 9.27267 107.377 9.562C107.163 9.842 106.859 10.052 106.467 10.192ZM102.743 9.912H104.955C105.525 9.912 105.959 9.80467 106.257 9.59C106.565 9.37533 106.719 9.06267 106.719 8.652C106.719 8.24133 106.565 7.93333 106.257 7.728C105.959 7.52267 105.525 7.42 104.955 7.42H102.743V9.912ZM105.081 13.216C105.716 13.216 106.192 13.1133 106.509 12.908C106.827 12.7027 106.985 12.3807 106.985 11.942C106.985 11.5033 106.841 11.1813 106.551 10.976C106.262 10.7613 105.805 10.654 105.179 10.654H102.743V13.216H105.081Z" fill="white"/>
<path d="M9.898 64.2V74H8.876V65.096H2.674V74H1.652V64.2H9.898ZM16.8027 66.58C17.4934 66.58 18.1187 66.7387 18.6787 67.056C19.2387 67.364 19.6774 67.8027 19.9947 68.372C20.3121 68.9413 20.4707 69.59 20.4707 70.318C20.4707 71.0553 20.3121 71.7087 19.9947 72.278C19.6774 72.8473 19.2387 73.2907 18.6787 73.608C18.1281 73.916 17.5027 74.07 16.8027 74.07C16.2054 74.07 15.6641 73.9487 15.1787 73.706C14.7027 73.454 14.3107 73.09 14.0027 72.614V76.716H13.0087V66.636H13.9607V68.092C14.2594 67.6067 14.6514 67.2333 15.1367 66.972C15.6314 66.7107 16.1867 66.58 16.8027 66.58ZM16.7327 73.188C17.2461 73.188 17.7127 73.0713 18.1327 72.838C18.5527 72.5953 18.8794 72.2547 19.1127 71.816C19.3554 71.3773 19.4767 70.878 19.4767 70.318C19.4767 69.758 19.3554 69.2633 19.1127 68.834C18.8794 68.3953 18.5527 68.0547 18.1327 67.812C17.7127 67.5693 17.2461 67.448 16.7327 67.448C16.2101 67.448 15.7387 67.5693 15.3187 67.812C14.9081 68.0547 14.5814 68.3953 14.3387 68.834C14.1054 69.2633 13.9887 69.758 13.9887 70.318C13.9887 70.878 14.1054 71.3773 14.3387 71.816C14.5814 72.2547 14.9081 72.5953 15.3187 72.838C15.7387 73.0713 16.2101 73.188 16.7327 73.188ZM25.6864 74.07C24.9771 74.07 24.3377 73.9113 23.7684 73.594C23.1991 73.2673 22.7511 72.8193 22.4244 72.25C22.0977 71.6807 21.9344 71.0367 21.9344 70.318C21.9344 69.5993 22.0977 68.9553 22.4244 68.386C22.7511 67.8167 23.1991 67.3733 23.7684 67.056C24.3377 66.7387 24.9771 66.58 25.6864 66.58C26.3957 66.58 27.0351 66.7387 27.6044 67.056C28.1737 67.3733 28.6171 67.8167 28.9344 68.386C29.2611 68.9553 29.4244 69.5993 29.4244 70.318C29.4244 71.0367 29.2611 71.6807 28.9344 72.25C28.6171 72.8193 28.1737 73.2673 27.6044 73.594C27.0351 73.9113 26.3957 74.07 25.6864 74.07ZM25.6864 73.188C26.2091 73.188 26.6757 73.0713 27.0864 72.838C27.5064 72.5953 27.8331 72.2547 28.0664 71.816C28.2997 71.3773 28.4164 70.878 28.4164 70.318C28.4164 69.758 28.2997 69.2587 28.0664 68.82C27.8331 68.3813 27.5064 68.0453 27.0864 67.812C26.6757 67.5693 26.2091 67.448 25.6864 67.448C25.1637 67.448 24.6924 67.5693 24.2724 67.812C23.8617 68.0453 23.5351 68.3813 23.2924 68.82C23.0591 69.2587 22.9424 69.758 22.9424 70.318C22.9424 70.878 23.0591 71.3773 23.2924 71.816C23.5351 72.2547 23.8617 72.5953 24.2724 72.838C24.6924 73.0713 25.1637 73.188 25.6864 73.188ZM36.7988 67.518H32.5848V74H31.5908V66.636H36.7988V67.518ZM42.0713 66.58C42.762 66.58 43.3873 66.7387 43.9473 67.056C44.5073 67.364 44.946 67.8027 45.2633 68.372C45.5806 68.9413 45.7393 69.59 45.7393 70.318C45.7393 71.0553 45.5806 71.7087 45.2633 72.278C44.946 72.8473 44.5073 73.2907 43.9473 73.608C43.3966 73.916 42.7713 74.07 42.0713 74.07C41.474 74.07 40.9326 73.9487 40.4473 73.706C39.9713 73.454 39.5793 73.09 39.2713 72.614V76.716H38.2773V66.636H39.2293V68.092C39.528 67.6067 39.92 67.2333 40.4053 66.972C40.9 66.7107 41.4553 66.58 42.0713 66.58ZM42.0013 73.188C42.5146 73.188 42.9813 73.0713 43.4013 72.838C43.8213 72.5953 44.148 72.2547 44.3813 71.816C44.624 71.3773 44.7453 70.878 44.7453 70.318C44.7453 69.758 44.624 69.2633 44.3813 68.834C44.148 68.3953 43.8213 68.0547 43.4013 67.812C42.9813 67.5693 42.5146 67.448 42.0013 67.448C41.4786 67.448 41.0073 67.5693 40.5873 67.812C40.1766 68.0547 39.85 68.3953 39.6073 68.834C39.374 69.2633 39.2573 69.758 39.2573 70.318C39.2573 70.878 39.374 71.3773 39.6073 71.816C39.85 72.2547 40.1766 72.5953 40.5873 72.838C41.0073 73.0713 41.4786 73.188 42.0013 73.188ZM50.41 66.58C51.3713 66.58 52.1086 66.8227 52.622 67.308C53.1353 67.784 53.392 68.4933 53.392 69.436V74H52.44V72.852C52.216 73.2347 51.8846 73.5333 51.446 73.748C51.0166 73.9627 50.5033 74.07 49.906 74.07C49.0846 74.07 48.4313 73.874 47.946 73.482C47.4606 73.09 47.218 72.572 47.218 71.928C47.218 71.3027 47.442 70.7987 47.89 70.416C48.3473 70.0333 49.0706 69.842 50.06 69.842H52.398V69.394C52.398 68.7593 52.2206 68.2787 51.866 67.952C51.5113 67.616 50.9933 67.448 50.312 67.448C49.8453 67.448 49.3973 67.5273 48.968 67.686C48.5386 67.8353 48.17 68.0453 47.862 68.316L47.414 67.574C47.7873 67.2567 48.2353 67.014 48.758 66.846C49.2806 66.6687 49.8313 66.58 50.41 66.58ZM50.06 73.286C50.62 73.286 51.1006 73.16 51.502 72.908C51.9033 72.6467 52.202 72.2733 52.398 71.788V70.584H50.088C48.828 70.584 48.198 71.0227 48.198 71.9C48.198 72.3293 48.3613 72.67 48.688 72.922C49.0146 73.1647 49.472 73.286 50.06 73.286ZM64.3121 66.636V74H63.4021V68.176L60.4201 73.104H59.9721L56.9901 68.162V74H56.0801V66.636H57.0881L60.2101 71.942L63.3881 66.636H64.3121ZM75.4146 66.636V74H74.5046V68.176L71.5226 73.104H71.0746L68.0926 68.162V74H67.1826V66.636H68.1906L71.3126 71.942L74.4906 66.636H75.4146ZM78.2852 66.636H79.2792V72.488L84.1932 66.636H85.0752V74H84.0812V68.148L79.1812 74H78.2852V66.636ZM91.7598 66.58C92.4505 66.58 93.0758 66.7387 93.6358 67.056C94.1958 67.364 94.6345 67.8027 94.9518 68.372C95.2692 68.9413 95.4278 69.59 95.4278 70.318C95.4278 71.0553 95.2692 71.7087 94.9518 72.278C94.6345 72.8473 94.1958 73.2907 93.6358 73.608C93.0852 73.916 92.4598 74.07 91.7598 74.07C91.1625 74.07 90.6212 73.9487 90.1358 73.706C89.6598 73.454 89.2678 73.09 88.9598 72.614V76.716H87.9658V66.636H88.9178V68.092C89.2165 67.6067 89.6085 67.2333 90.0938 66.972C90.5885 66.7107 91.1438 66.58 91.7598 66.58ZM91.6898 73.188C92.2032 73.188 92.6698 73.0713 93.0898 72.838C93.5098 72.5953 93.8365 72.2547 94.0698 71.816C94.3125 71.3773 94.4338 70.878 94.4338 70.318C94.4338 69.758 94.3125 69.2633 94.0698 68.834C93.8365 68.3953 93.5098 68.0547 93.0898 67.812C92.6698 67.5693 92.2032 67.448 91.6898 67.448C91.1672 67.448 90.6958 67.5693 90.2758 67.812C89.8652 68.0547 89.5385 68.3953 89.2958 68.834C89.0625 69.2633 88.9458 69.758 88.9458 70.318C88.9458 70.878 89.0625 71.3773 89.2958 71.816C89.5385 72.2547 89.8652 72.5953 90.2758 72.838C90.6958 73.0713 91.1672 73.188 91.6898 73.188ZM100.643 74.07C99.9341 74.07 99.2948 73.9113 98.7255 73.594C98.1561 73.2673 97.7081 72.8193 97.3815 72.25C97.0548 71.6807 96.8915 71.0367 96.8915 70.318C96.8915 69.5993 97.0548 68.9553 97.3815 68.386C97.7081 67.8167 98.1561 67.3733 98.7255 67.056C99.2948 66.7387 99.9341 66.58 100.643 66.58C101.353 66.58 101.992 66.7387 102.561 67.056C103.131 67.3733 103.574 67.8167 103.891 68.386C104.218 68.9553 104.381 69.5993 104.381 70.318C104.381 71.0367 104.218 71.6807 103.891 72.25C103.574 72.8193 103.131 73.2673 102.561 73.594C101.992 73.9113 101.353 74.07 100.643 74.07ZM100.643 73.188C101.166 73.188 101.633 73.0713 102.043 72.838C102.463 72.5953 102.79 72.2547 103.023 71.816C103.257 71.3773 103.373 70.878 103.373 70.318C103.373 69.758 103.257 69.2587 103.023 68.82C102.79 68.3813 102.463 68.0453 102.043 67.812C101.633 67.5693 101.166 67.448 100.643 67.448C100.121 67.448 99.6495 67.5693 99.2295 67.812C98.8188 68.0453 98.4921 68.3813 98.2495 68.82C98.0161 69.2587 97.8995 69.758 97.8995 70.318C97.8995 70.878 98.0161 71.3773 98.2495 71.816C98.4921 72.2547 98.8188 72.5953 99.2295 72.838C99.6495 73.0713 100.121 73.188 100.643 73.188ZM111.238 70.192C112.237 70.4253 112.736 71.0273 112.736 71.998C112.736 72.642 112.498 73.1367 112.022 73.482C111.546 73.8273 110.837 74 109.894 74H106.548V66.636H109.796C110.636 66.636 111.294 66.7993 111.77 67.126C112.246 67.4527 112.484 67.9193 112.484 68.526C112.484 68.9273 112.372 69.2727 112.148 69.562C111.933 69.842 111.63 70.052 111.238 70.192ZM107.514 69.912H109.726C110.295 69.912 110.729 69.8047 111.028 69.59C111.336 69.3753 111.49 69.0627 111.49 68.652C111.49 68.2413 111.336 67.9333 111.028 67.728C110.729 67.5227 110.295 67.42 109.726 67.42H107.514V69.912ZM109.852 73.216C110.487 73.216 110.963 73.1133 111.28 72.908C111.597 72.7027 111.756 72.3807 111.756 71.942C111.756 71.5033 111.611 71.1813 111.322 70.976C111.033 70.7613 110.575 70.654 109.95 70.654H107.514V73.216H109.852ZM117.641 66.58C118.603 66.58 119.34 66.8227 119.853 67.308C120.367 67.784 120.623 68.4933 120.623 69.436V74H119.671V72.852C119.447 73.2347 119.116 73.5333 118.677 73.748C118.248 73.9627 117.735 74.07 117.137 74.07C116.316 74.07 115.663 73.874 115.177 73.482C114.692 73.09 114.449 72.572 114.449 71.928C114.449 71.3027 114.673 70.7987 115.121 70.416C115.579 70.0333 116.302 69.842 117.291 69.842H119.629V69.394C119.629 68.7593 119.452 68.2787 119.097 67.952C118.743 67.616 118.225 67.448 117.543 67.448C117.077 67.448 116.629 67.5273 116.199 67.686C115.77 67.8353 115.401 68.0453 115.093 68.316L114.645 67.574C115.019 67.2567 115.467 67.014 115.989 66.846C116.512 66.6687 117.063 66.58 117.641 66.58ZM117.291 73.286C117.851 73.286 118.332 73.16 118.733 72.908C119.135 72.6467 119.433 72.2733 119.629 71.788V70.584H117.319C116.059 70.584 115.429 71.0227 115.429 71.9C115.429 72.3293 115.593 72.67 115.919 72.922C116.246 73.1647 116.703 73.286 117.291 73.286ZM123.312 66.636H124.306V69.898H128.94V66.636H129.934V74H128.94V70.752H124.306V74H123.312V66.636ZM132.801 66.636H133.795V72.488L138.709 66.636H139.591V74H138.597V68.148L133.697 74H132.801V66.636ZM148.922 70.626H142.762C142.818 71.3913 143.112 72.012 143.644 72.488C144.176 72.9547 144.848 73.188 145.66 73.188C146.117 73.188 146.537 73.1087 146.92 72.95C147.302 72.782 147.634 72.5393 147.914 72.222L148.474 72.866C148.147 73.258 147.736 73.5567 147.242 73.762C146.756 73.9673 146.22 74.07 145.632 74.07C144.876 74.07 144.204 73.9113 143.616 73.594C143.037 73.2673 142.584 72.8193 142.258 72.25C141.931 71.6807 141.768 71.0367 141.768 70.318C141.768 69.5993 141.922 68.9553 142.23 68.386C142.547 67.8167 142.976 67.3733 143.518 67.056C144.068 66.7387 144.684 66.58 145.366 66.58C146.047 66.58 146.658 66.7387 147.2 67.056C147.741 67.3733 148.166 67.8167 148.474 68.386C148.782 68.946 148.936 69.59 148.936 70.318L148.922 70.626ZM145.366 67.434C144.656 67.434 144.059 67.6627 143.574 68.12C143.098 68.568 142.827 69.156 142.762 69.884H147.984C147.918 69.156 147.643 68.568 147.158 68.12C146.682 67.6627 146.084 67.434 145.366 67.434Z" fill="white"/>
<path d="M8.064 125.096H4.62V134H3.598V125.096H0.154V124.2H8.064V125.096ZM15.3608 130.626H9.20084C9.25684 131.391 9.55084 132.012 10.0828 132.488C10.6148 132.955 11.2868 133.188 12.0988 133.188C12.5562 133.188 12.9762 133.109 13.3588 132.95C13.7415 132.782 14.0728 132.539 14.3528 132.222L14.9128 132.866C14.5862 133.258 14.1755 133.557 13.6808 133.762C13.1955 133.967 12.6588 134.07 12.0708 134.07C11.3148 134.07 10.6428 133.911 10.0548 133.594C9.47618 133.267 9.02351 132.819 8.69684 132.25C8.37018 131.681 8.20684 131.037 8.20684 130.318C8.20684 129.599 8.36084 128.955 8.66884 128.386C8.98618 127.817 9.41551 127.373 9.95684 127.056C10.5075 126.739 11.1235 126.58 11.8048 126.58C12.4862 126.58 13.0975 126.739 13.6388 127.056C14.1802 127.373 14.6048 127.817 14.9128 128.386C15.2208 128.946 15.3748 129.59 15.3748 130.318L15.3608 130.626ZM11.8048 127.434C11.0955 127.434 10.4982 127.663 10.0128 128.12C9.53684 128.568 9.26618 129.156 9.20084 129.884H14.4228C14.3575 129.156 14.0822 128.568 13.5968 128.12C13.1208 127.663 12.5235 127.434 11.8048 127.434ZM22.0181 134L19.6801 130.92L17.3281 134H16.2081L19.1201 130.22L16.3481 126.636H17.4681L19.6801 129.52L21.8921 126.636H22.9841L20.2121 130.22L23.1521 134H22.0181ZM24.8232 126.636H25.8172V129.898H30.4512V126.636H31.4452V134H30.4512V130.752H25.8172V134H24.8232V126.636ZM34.3125 126.636H35.3065V132.488L40.2205 126.636H41.1025V134H40.1085V128.148L35.2085 134H34.3125V126.636ZM49.5511 126.636V134H48.5571V130.934C47.7078 131.307 46.8725 131.494 46.0511 131.494C45.1645 131.494 44.4738 131.293 43.9791 130.892C43.4845 130.481 43.2371 129.87 43.2371 129.058V126.636H44.2311V129.002C44.2311 129.553 44.4085 129.973 44.7631 130.262C45.1178 130.542 45.6078 130.682 46.2331 130.682C46.9238 130.682 47.6985 130.5 48.5571 130.136V126.636H49.5511ZM58.856 130.626H52.696C52.752 131.391 53.046 132.012 53.578 132.488C54.11 132.955 54.782 133.188 55.594 133.188C56.0513 133.188 56.4713 133.109 56.854 132.95C57.2367 132.782 57.568 132.539 57.848 132.222L58.408 132.866C58.0813 133.258 57.6707 133.557 57.176 133.762C56.6907 133.967 56.154 134.07 55.566 134.07C54.81 134.07 54.138 133.911 53.55 133.594C52.9713 133.267 52.5187 132.819 52.192 132.25C51.8653 131.681 51.702 131.037 51.702 130.318C51.702 129.599 51.856 128.955 52.164 128.386C52.4813 127.817 52.9107 127.373 53.452 127.056C54.0027 126.739 54.6187 126.58 55.3 126.58C55.9813 126.58 56.5927 126.739 57.134 127.056C57.6753 127.373 58.1 127.817 58.408 128.386C58.716 128.946 58.87 129.59 58.87 130.318L58.856 130.626ZM55.3 127.434C54.5907 127.434 53.9933 127.663 53.508 128.12C53.032 128.568 52.7613 129.156 52.696 129.884H57.918C57.8527 129.156 57.5773 128.568 57.092 128.12C56.616 127.663 56.0187 127.434 55.3 127.434ZM64.1923 134.07C63.4643 134.07 62.811 133.911 62.2323 133.594C61.663 133.277 61.215 132.833 60.8883 132.264C60.5616 131.685 60.3983 131.037 60.3983 130.318C60.3983 129.599 60.5616 128.955 60.8883 128.386C61.215 127.817 61.663 127.373 62.2323 127.056C62.811 126.739 63.4643 126.58 64.1923 126.58C64.827 126.58 65.3916 126.706 65.8863 126.958C66.3903 127.201 66.787 127.56 67.0763 128.036L66.3343 128.54C66.0916 128.176 65.7836 127.905 65.4103 127.728C65.037 127.541 64.631 127.448 64.1923 127.448C63.6603 127.448 63.1796 127.569 62.7503 127.812C62.3303 128.045 61.999 128.381 61.7563 128.82C61.523 129.259 61.4063 129.758 61.4063 130.318C61.4063 130.887 61.523 131.391 61.7563 131.83C61.999 132.259 62.3303 132.595 62.7503 132.838C63.1796 133.071 63.6603 133.188 64.1923 133.188C64.631 133.188 65.037 133.099 65.4103 132.922C65.7836 132.745 66.0916 132.474 66.3343 132.11L67.0763 132.614C66.787 133.09 66.3903 133.454 65.8863 133.706C65.3823 133.949 64.8176 134.07 64.1923 134.07ZM71.717 130.724H70.037V134H69.043V126.636H70.037V129.87H71.731L74.321 126.636H75.399L72.501 130.206L75.609 134H74.433L71.717 130.724ZM79.617 126.58C80.5783 126.58 81.3157 126.823 81.829 127.308C82.3423 127.784 82.599 128.493 82.599 129.436V134H81.647V132.852C81.423 133.235 81.0917 133.533 80.653 133.748C80.2237 133.963 79.7103 134.07 79.113 134.07C78.2917 134.07 77.6383 133.874 77.153 133.482C76.6677 133.09 76.425 132.572 76.425 131.928C76.425 131.303 76.649 130.799 77.097 130.416C77.5543 130.033 78.2777 129.842 79.267 129.842H81.605V129.394C81.605 128.759 81.4277 128.279 81.073 127.952C80.7183 127.616 80.2003 127.448 79.519 127.448C79.0523 127.448 78.6043 127.527 78.175 127.686C77.7457 127.835 77.377 128.045 77.069 128.316L76.621 127.574C76.9943 127.257 77.4423 127.014 77.965 126.846C78.4877 126.669 79.0383 126.58 79.617 126.58ZM79.267 133.286C79.827 133.286 80.3077 133.16 80.709 132.908C81.1103 132.647 81.409 132.273 81.605 131.788V130.584H79.295C78.035 130.584 77.405 131.023 77.405 131.9C77.405 132.329 77.5683 132.67 77.895 132.922C78.2217 133.165 78.679 133.286 79.267 133.286ZM90.9431 126.636V134H90.0331V131.564H87.7231H87.4431L85.7351 134H84.6571L86.4911 131.424C85.9218 131.265 85.4831 130.995 85.1751 130.612C84.8671 130.229 84.7131 129.744 84.7131 129.156C84.7131 128.335 84.9931 127.709 85.5531 127.28C86.1131 126.851 86.8785 126.636 87.8491 126.636H90.9431ZM85.7211 129.184C85.7211 130.276 86.4165 130.822 87.8071 130.822H90.0331V127.518H87.8771C86.4398 127.518 85.7211 128.073 85.7211 129.184ZM104.133 126.636V134H103.139V127.518H98.5194V134H97.5254V126.636H104.133ZM110.039 134.07C109.33 134.07 108.69 133.911 108.121 133.594C107.552 133.267 107.104 132.819 106.777 132.25C106.45 131.681 106.287 131.037 106.287 130.318C106.287 129.599 106.45 128.955 106.777 128.386C107.104 127.817 107.552 127.373 108.121 127.056C108.69 126.739 109.33 126.58 110.039 126.58C110.748 126.58 111.388 126.739 111.957 127.056C112.526 127.373 112.97 127.817 113.287 128.386C113.614 128.955 113.777 129.599 113.777 130.318C113.777 131.037 113.614 131.681 113.287 132.25C112.97 132.819 112.526 133.267 111.957 133.594C111.388 133.911 110.748 134.07 110.039 134.07ZM110.039 133.188C110.562 133.188 111.028 133.071 111.439 132.838C111.859 132.595 112.186 132.255 112.419 131.816C112.652 131.377 112.769 130.878 112.769 130.318C112.769 129.758 112.652 129.259 112.419 128.82C112.186 128.381 111.859 128.045 111.439 127.812C111.028 127.569 110.562 127.448 110.039 127.448C109.516 127.448 109.045 127.569 108.625 127.812C108.214 128.045 107.888 128.381 107.645 128.82C107.412 129.259 107.295 129.758 107.295 130.318C107.295 130.878 107.412 131.377 107.645 131.816C107.888 132.255 108.214 132.595 108.625 132.838C109.045 133.071 109.516 133.188 110.039 133.188ZM123.084 133.132V135.778H122.146V134H115.552V135.778H114.614V133.132H115.034C115.529 133.104 115.865 132.74 116.042 132.04C116.22 131.34 116.341 130.36 116.406 129.1L116.504 126.636H121.936V133.132H123.084ZM117.316 129.156C117.27 130.201 117.181 131.065 117.05 131.746C116.92 132.418 116.686 132.88 116.35 133.132H120.942V127.518H117.4L117.316 129.156ZM132.246 133.132V135.778H131.308V134H124.714V135.778H123.776V133.132H124.196C124.69 133.104 125.026 132.74 125.204 132.04C125.381 131.34 125.502 130.36 125.568 129.1L125.666 126.636H131.098V133.132H132.246ZM126.478 129.156C126.431 130.201 126.342 131.065 126.212 131.746C126.081 132.418 125.848 132.88 125.512 133.132H130.104V127.518H126.562L126.478 129.156ZM140.665 130.626H134.505C134.561 131.391 134.855 132.012 135.387 132.488C135.919 132.955 136.591 133.188 137.403 133.188C137.86 133.188 138.28 133.109 138.663 132.95C139.045 132.782 139.377 132.539 139.657 132.222L140.217 132.866C139.89 133.258 139.479 133.557 138.985 133.762C138.499 133.967 137.963 134.07 137.375 134.07C136.619 134.07 135.947 133.911 135.359 133.594C134.78 133.267 134.327 132.819 134.001 132.25C133.674 131.681 133.511 131.037 133.511 130.318C133.511 129.599 133.665 128.955 133.973 128.386C134.29 127.817 134.719 127.373 135.261 127.056C135.811 126.739 136.427 126.58 137.109 126.58C137.79 126.58 138.401 126.739 138.943 127.056C139.484 127.373 139.909 127.817 140.217 128.386C140.525 128.946 140.679 129.59 140.679 130.318L140.665 130.626ZM137.109 127.434C136.399 127.434 135.802 127.663 135.317 128.12C134.841 128.568 134.57 129.156 134.505 129.884H139.727C139.661 129.156 139.386 128.568 138.901 128.12C138.425 127.663 137.827 127.434 137.109 127.434ZM146.715 126.58C147.406 126.58 148.031 126.739 148.591 127.056C149.151 127.364 149.59 127.803 149.907 128.372C150.224 128.941 150.383 129.59 150.383 130.318C150.383 131.055 150.224 131.709 149.907 132.278C149.59 132.847 149.151 133.291 148.591 133.608C148.04 133.916 147.415 134.07 146.715 134.07C146.118 134.07 145.576 133.949 145.091 133.706C144.615 133.454 144.223 133.09 143.915 132.614V136.716H142.921V126.636H143.873V128.092C144.172 127.607 144.564 127.233 145.049 126.972C145.544 126.711 146.099 126.58 146.715 126.58ZM146.645 133.188C147.158 133.188 147.625 133.071 148.045 132.838C148.465 132.595 148.792 132.255 149.025 131.816C149.268 131.377 149.389 130.878 149.389 130.318C149.389 129.758 149.268 129.263 149.025 128.834C148.792 128.395 148.465 128.055 148.045 127.812C147.625 127.569 147.158 127.448 146.645 127.448C146.122 127.448 145.651 127.569 145.231 127.812C144.82 128.055 144.494 128.395 144.251 128.834C144.018 129.263 143.901 129.758 143.901 130.318C143.901 130.878 144.018 131.377 144.251 131.816C144.494 132.255 144.82 132.595 145.231 132.838C145.651 133.071 146.122 133.188 146.645 133.188ZM158.755 130.724H157.159V134H156.165V130.724H154.569L152.315 134H151.125L153.771 130.206L151.335 126.636H152.413L154.569 129.87H156.165V126.636H157.159V129.87H158.755L160.925 126.636H162.003L159.567 130.22L162.213 134H161.023L158.755 130.724ZM166.583 130.724H164.903V134H163.909V126.636H164.903V129.87H166.597L169.187 126.636H170.265L167.367 130.206L170.475 134H169.299L166.583 130.724ZM174.483 126.58C175.445 126.58 176.182 126.823 176.695 127.308C177.209 127.784 177.465 128.493 177.465 129.436V134H176.513V132.852C176.289 133.235 175.958 133.533 175.519 133.748C175.09 133.963 174.577 134.07 173.979 134.07C173.158 134.07 172.505 133.874 172.019 133.482C171.534 133.09 171.291 132.572 171.291 131.928C171.291 131.303 171.515 130.799 171.963 130.416C172.421 130.033 173.144 129.842 174.133 129.842H176.471V129.394C176.471 128.759 176.294 128.279 175.939 127.952C175.585 127.616 175.067 127.448 174.385 127.448C173.919 127.448 173.471 127.527 173.041 127.686C172.612 127.835 172.243 128.045 171.935 128.316L171.487 127.574C171.861 127.257 172.309 127.014 172.831 126.846C173.354 126.669 173.905 126.58 174.483 126.58ZM174.133 133.286C174.693 133.286 175.174 133.16 175.575 132.908C175.977 132.647 176.275 132.273 176.471 131.788V130.584H174.161C172.901 130.584 172.271 131.023 172.271 131.9C172.271 132.329 172.435 132.67 172.761 132.922C173.088 133.165 173.545 133.286 174.133 133.286Z" fill="white"/>
<path d="M1.652 184.2H2.674V192.32L8.946 184.2H9.884V194H8.862V185.894L2.59 194H1.652V184.2ZM12.9951 186.636H13.9891V189.898H18.6231V186.636H19.6171V194H18.6231V190.752H13.9891V194H12.9951V186.636ZM27.6643 187.518H24.8783V194H23.8843V187.518H21.0983V186.636H27.6643V187.518ZM35.2417 190.626H29.0817C29.1377 191.391 29.4317 192.012 29.9637 192.488C30.4957 192.955 31.1677 193.188 31.9797 193.188C32.4371 193.188 32.8571 193.109 33.2397 192.95C33.6224 192.782 33.9537 192.539 34.2337 192.222L34.7937 192.866C34.4671 193.258 34.0564 193.557 33.5617 193.762C33.0764 193.967 32.5397 194.07 31.9517 194.07C31.1957 194.07 30.5237 193.911 29.9357 193.594C29.3571 193.267 28.9044 192.819 28.5777 192.25C28.2511 191.681 28.0877 191.037 28.0877 190.318C28.0877 189.599 28.2417 188.955 28.5497 188.386C28.8671 187.817 29.2964 187.373 29.8377 187.056C30.3884 186.739 31.0044 186.58 31.6857 186.58C32.3671 186.58 32.9784 186.739 33.5197 187.056C34.0611 187.373 34.4857 187.817 34.7937 188.386C35.1017 188.946 35.2557 189.59 35.2557 190.318L35.2417 190.626ZM31.6857 187.434C30.9764 187.434 30.3791 187.663 29.8937 188.12C29.4177 188.568 29.1471 189.156 29.0817 189.884H34.3037C34.2384 189.156 33.9631 188.568 33.4777 188.12C33.0017 187.663 32.4044 187.434 31.6857 187.434ZM41.292 186.58C41.9827 186.58 42.608 186.739 43.168 187.056C43.728 187.364 44.1667 187.803 44.484 188.372C44.8013 188.941 44.96 189.59 44.96 190.318C44.96 191.055 44.8013 191.709 44.484 192.278C44.1667 192.847 43.728 193.291 43.168 193.608C42.6173 193.916 41.992 194.07 41.292 194.07C40.6947 194.07 40.1533 193.949 39.668 193.706C39.192 193.454 38.8 193.09 38.492 192.614V196.716H37.498V186.636H38.45V188.092C38.7487 187.607 39.1407 187.233 39.626 186.972C40.1207 186.711 40.676 186.58 41.292 186.58ZM41.222 193.188C41.7353 193.188 42.202 193.071 42.622 192.838C43.042 192.595 43.3687 192.255 43.602 191.816C43.8447 191.377 43.966 190.878 43.966 190.318C43.966 189.758 43.8447 189.263 43.602 188.834C43.3687 188.395 43.042 188.055 42.622 187.812C42.202 187.569 41.7353 187.448 41.222 187.448C40.6993 187.448 40.228 187.569 39.808 187.812C39.3973 188.055 39.0707 188.395 38.828 188.834C38.5947 189.263 38.478 189.758 38.478 190.318C38.478 190.878 38.5947 191.377 38.828 191.816C39.0707 192.255 39.3973 192.595 39.808 192.838C40.228 193.071 40.6993 193.188 41.222 193.188ZM47.1377 186.636H48.1317V189.898H52.7657V186.636H53.7597V194H52.7657V190.752H48.1317V194H47.1377V186.636ZM63.0669 190.626H56.9069C56.9629 191.391 57.2569 192.012 57.7889 192.488C58.3209 192.955 58.9929 193.188 59.8049 193.188C60.2623 193.188 60.6823 193.109 61.0649 192.95C61.4476 192.782 61.7789 192.539 62.0589 192.222L62.6189 192.866C62.2923 193.258 61.8816 193.557 61.3869 193.762C60.9016 193.967 60.3649 194.07 59.7769 194.07C59.0209 194.07 58.3489 193.911 57.7609 193.594C57.1823 193.267 56.7296 192.819 56.4029 192.25C56.0763 191.681 55.9129 191.037 55.9129 190.318C55.9129 189.599 56.0669 188.955 56.3749 188.386C56.6923 187.817 57.1216 187.373 57.6629 187.056C58.2136 186.739 58.8296 186.58 59.5109 186.58C60.1923 186.58 60.8036 186.739 61.3449 187.056C61.8863 187.373 62.3109 187.817 62.6189 188.386C62.9269 188.946 63.0809 189.59 63.0809 190.318L63.0669 190.626ZM59.5109 187.434C58.8016 187.434 58.2043 187.663 57.7189 188.12C57.2429 188.568 56.9723 189.156 56.9069 189.884H62.1289C62.0636 189.156 61.7883 188.568 61.3029 188.12C60.8269 187.663 60.2296 187.434 59.5109 187.434ZM70.1751 187.518H67.3891V194H66.3951V187.518H63.6091V186.636H70.1751V187.518ZM83.5924 186.636V194H82.6824V188.176L79.7004 193.104H79.2524L76.2704 188.162V194H75.3604V186.636H76.3684L79.4904 191.942L82.6684 186.636H83.5924ZM88.9969 186.58C89.9582 186.58 90.6956 186.823 91.2089 187.308C91.7222 187.784 91.9789 188.493 91.9789 189.436V194H91.0269V192.852C90.8029 193.235 90.4716 193.533 90.0329 193.748C89.6036 193.963 89.0902 194.07 88.4929 194.07C87.6716 194.07 87.0182 193.874 86.5329 193.482C86.0476 193.09 85.8049 192.572 85.8049 191.928C85.8049 191.303 86.0289 190.799 86.4769 190.416C86.9342 190.033 87.6576 189.842 88.6469 189.842H90.9849V189.394C90.9849 188.759 90.8076 188.279 90.4529 187.952C90.0982 187.616 89.5802 187.448 88.8989 187.448C88.4322 187.448 87.9842 187.527 87.5549 187.686C87.1256 187.835 86.7569 188.045 86.4489 188.316L86.0009 187.574C86.3742 187.257 86.8222 187.014 87.3449 186.846C87.8676 186.669 88.4182 186.58 88.9969 186.58ZM88.6469 193.286C89.2069 193.286 89.6876 193.16 90.0889 192.908C90.4902 192.647 90.7889 192.273 90.9849 191.788V190.584H88.6749C87.4149 190.584 86.7849 191.023 86.7849 191.9C86.7849 192.329 86.9482 192.67 87.2749 192.922C87.6016 193.165 88.0589 193.286 88.6469 193.286ZM99.875 187.518H95.661V194H94.667V186.636H99.875V187.518ZM103.888 186.58C104.849 186.58 105.586 186.823 106.1 187.308C106.613 187.784 106.87 188.493 106.87 189.436V194H105.918V192.852C105.694 193.235 105.362 193.533 104.924 193.748C104.494 193.963 103.981 194.07 103.384 194.07C102.562 194.07 101.909 193.874 101.424 193.482C100.938 193.09 100.696 192.572 100.696 191.928C100.696 191.303 100.92 190.799 101.368 190.416C101.825 190.033 102.548 189.842 103.538 189.842H105.876V189.394C105.876 188.759 105.698 188.279 105.344 187.952C104.989 187.616 104.471 187.448 103.79 187.448C103.323 187.448 102.875 187.527 102.446 187.686C102.016 187.835 101.648 188.045 101.34 188.316L100.892 187.574C101.265 187.257 101.713 187.014 102.236 186.846C102.758 186.669 103.309 186.58 103.888 186.58ZM103.538 193.286C104.098 193.286 104.578 193.16 104.98 192.908C105.381 192.647 105.68 192.273 105.876 191.788V190.584H103.566C102.306 190.584 101.676 191.023 101.676 191.9C101.676 192.329 101.839 192.67 102.166 192.922C102.492 193.165 102.95 193.286 103.538 193.286ZM112.991 190.164C113.514 190.285 113.915 190.495 114.195 190.794C114.485 191.093 114.629 191.457 114.629 191.886C114.629 192.315 114.48 192.698 114.181 193.034C113.892 193.37 113.495 193.631 112.991 193.818C112.487 193.995 111.932 194.084 111.325 194.084C110.793 194.084 110.271 194.009 109.757 193.86C109.244 193.701 108.796 193.473 108.413 193.174L108.749 192.432C109.085 192.684 109.477 192.88 109.925 193.02C110.373 193.16 110.826 193.23 111.283 193.23C111.965 193.23 112.52 193.104 112.949 192.852C113.388 192.591 113.607 192.241 113.607 191.802C113.607 191.41 113.43 191.107 113.075 190.892C112.721 190.668 112.235 190.556 111.619 190.556H110.359V189.828H111.563C112.114 189.828 112.557 189.725 112.893 189.52C113.229 189.305 113.397 189.021 113.397 188.666C113.397 188.274 113.206 187.966 112.823 187.742C112.45 187.518 111.96 187.406 111.353 187.406C110.56 187.406 109.776 187.607 109.001 188.008L108.721 187.238C109.599 186.781 110.509 186.552 111.451 186.552C112.011 186.552 112.515 186.636 112.963 186.804C113.421 186.963 113.775 187.191 114.027 187.49C114.289 187.789 114.419 188.134 114.419 188.526C114.419 188.899 114.289 189.231 114.027 189.52C113.775 189.809 113.43 190.024 112.991 190.164ZM116.928 186.636H117.922V192.488L122.836 186.636H123.718V194H122.724V188.148L117.824 194H116.928V186.636ZM126.608 186.636H127.602V189.898H132.236V186.636H133.23V194H132.236V190.752H127.602V194H126.608V186.636ZM139.192 189.24C140.116 189.249 140.82 189.455 141.306 189.856C141.791 190.257 142.034 190.836 142.034 191.592C142.034 192.376 141.772 192.978 141.25 193.398C140.727 193.818 139.98 194.023 139.01 194.014L136.098 194V186.636H137.092V189.212L139.192 189.24ZM143.266 186.636H144.26V194H143.266V186.636ZM138.954 193.258C139.635 193.267 140.148 193.132 140.494 192.852C140.848 192.563 141.026 192.143 141.026 191.592C141.026 191.051 140.853 190.649 140.508 190.388C140.162 190.127 139.644 189.991 138.954 189.982L137.092 189.954V193.23L138.954 193.258Z" fill="white"/>
<path d="M428.889 27.229C429.461 27.4197 429.899 27.7057 430.202 28.087C430.514 28.4683 430.67 28.9277 430.67 29.465C430.67 29.9937 430.527 30.4573 430.241 30.856C429.955 31.246 429.543 31.5493 429.006 31.766C428.477 31.974 427.853 32.078 427.134 32.078C426.042 32.078 425.184 31.844 424.56 31.376C423.936 30.908 423.624 30.271 423.624 29.465C423.624 28.919 423.771 28.4597 424.066 28.087C424.369 27.7057 424.807 27.4197 425.379 27.229C424.911 27.047 424.556 26.787 424.313 26.449C424.07 26.1023 423.949 25.695 423.949 25.227C423.949 24.4903 424.235 23.9053 424.807 23.472C425.388 23.0387 426.163 22.822 427.134 22.822C427.775 22.822 428.334 22.9217 428.811 23.121C429.296 23.3117 429.673 23.589 429.942 23.953C430.211 24.317 430.345 24.7417 430.345 25.227C430.345 25.695 430.219 26.1023 429.968 26.449C429.717 26.787 429.357 27.047 428.889 27.229ZM424.885 25.253C424.885 25.7557 425.084 26.1543 425.483 26.449C425.882 26.7437 426.432 26.891 427.134 26.891C427.836 26.891 428.386 26.7437 428.785 26.449C429.192 26.1543 429.396 25.76 429.396 25.266C429.396 24.7547 429.188 24.3517 428.772 24.057C428.365 23.7623 427.819 23.615 427.134 23.615C426.441 23.615 425.89 23.7623 425.483 24.057C425.084 24.3517 424.885 24.7503 424.885 25.253ZM427.134 31.285C427.94 31.285 428.568 31.1203 429.019 30.791C429.478 30.4617 429.708 30.0153 429.708 29.452C429.708 28.8887 429.478 28.4467 429.019 28.126C428.568 27.7967 427.94 27.632 427.134 27.632C426.337 27.632 425.708 27.7967 425.249 28.126C424.798 28.4467 424.573 28.8887 424.573 29.452C424.573 30.024 424.798 30.4747 425.249 30.804C425.7 31.1247 426.328 31.285 427.134 31.285ZM437.218 27.229C437.79 27.4197 438.228 27.7057 438.531 28.087C438.843 28.4683 438.999 28.9277 438.999 29.465C438.999 29.9937 438.856 30.4573 438.57 30.856C438.284 31.246 437.872 31.5493 437.335 31.766C436.806 31.974 436.182 32.078 435.463 32.078C434.371 32.078 433.513 31.844 432.889 31.376C432.265 30.908 431.953 30.271 431.953 29.465C431.953 28.919 432.1 28.4597 432.395 28.087C432.698 27.7057 433.136 27.4197 433.708 27.229C433.24 27.047 432.885 26.787 432.642 26.449C432.399 26.1023 432.278 25.695 432.278 25.227C432.278 24.4903 432.564 23.9053 433.136 23.472C433.717 23.0387 434.492 22.822 435.463 22.822C436.104 22.822 436.663 22.9217 437.14 23.121C437.625 23.3117 438.002 23.589 438.271 23.953C438.54 24.317 438.674 24.7417 438.674 25.227C438.674 25.695 438.548 26.1023 438.297 26.449C438.046 26.787 437.686 27.047 437.218 27.229ZM433.214 25.253C433.214 25.7557 433.413 26.1543 433.812 26.449C434.211 26.7437 434.761 26.891 435.463 26.891C436.165 26.891 436.715 26.7437 437.114 26.449C437.521 26.1543 437.725 25.76 437.725 25.266C437.725 24.7547 437.517 24.3517 437.101 24.057C436.694 23.7623 436.148 23.615 435.463 23.615C434.77 23.615 434.219 23.7623 433.812 24.057C433.413 24.3517 433.214 24.7503 433.214 25.253ZM435.463 31.285C436.269 31.285 436.897 31.1203 437.348 30.791C437.807 30.4617 438.037 30.0153 438.037 29.452C438.037 28.8887 437.807 28.4467 437.348 28.126C436.897 27.7967 436.269 27.632 435.463 27.632C434.666 27.632 434.037 27.7967 433.578 28.126C433.127 28.4467 432.902 28.8887 432.902 29.452C432.902 30.024 433.127 30.4747 433.578 30.804C434.029 31.1247 434.657 31.285 435.463 31.285ZM442.131 27.775C441.516 27.775 441.017 27.5497 440.636 27.099C440.263 26.6397 440.077 26.0417 440.077 25.305C440.077 24.5683 440.263 23.9747 440.636 23.524C441.017 23.0647 441.516 22.835 442.131 22.835C442.738 22.835 443.232 23.0603 443.613 23.511C443.994 23.9617 444.185 24.5597 444.185 25.305C444.185 26.0503 443.994 26.6483 443.613 27.099C443.232 27.5497 442.738 27.775 442.131 27.775ZM447.643 22.9H448.41L442.196 32H441.429L447.643 22.9ZM442.131 27.19C442.556 27.19 442.894 27.0253 443.145 26.696C443.405 26.358 443.535 25.8943 443.535 25.305C443.535 24.7157 443.405 24.2563 443.145 23.927C442.894 23.589 442.556 23.42 442.131 23.42C441.698 23.42 441.355 23.589 441.104 23.927C440.853 24.265 440.727 24.7243 440.727 25.305C440.727 25.8857 440.853 26.345 441.104 26.683C441.355 27.021 441.698 27.19 442.131 27.19ZM447.708 32.065C447.101 32.065 446.607 31.8397 446.226 31.389C445.845 30.9297 445.654 30.3317 445.654 29.595C445.654 28.8583 445.845 28.2647 446.226 27.814C446.607 27.3547 447.101 27.125 447.708 27.125C448.323 27.125 448.817 27.3547 449.19 27.814C449.571 28.2647 449.762 28.8583 449.762 29.595C449.762 30.3317 449.571 30.9297 449.19 31.389C448.817 31.8397 448.323 32.065 447.708 32.065ZM447.708 31.48C448.141 31.48 448.484 31.311 448.735 30.973C448.986 30.635 449.112 30.1757 449.112 29.595C449.112 29.0143 448.986 28.555 448.735 28.217C448.484 27.879 448.141 27.71 447.708 27.71C447.283 27.71 446.941 27.879 446.681 28.217C446.43 28.5463 446.304 29.0057 446.304 29.595C446.304 30.1843 446.43 30.648 446.681 30.986C446.941 31.3153 447.283 31.48 447.708 31.48Z" fill="white"/>
<path d="M386.889 87.229C387.461 87.4197 387.899 87.7057 388.202 88.087C388.514 88.4683 388.67 88.9277 388.67 89.465C388.67 89.9937 388.527 90.4573 388.241 90.856C387.955 91.246 387.543 91.5493 387.006 91.766C386.477 91.974 385.853 92.078 385.134 92.078C384.042 92.078 383.184 91.844 382.56 91.376C381.936 90.908 381.624 90.271 381.624 89.465C381.624 88.919 381.771 88.4597 382.066 88.087C382.369 87.7057 382.807 87.4197 383.379 87.229C382.911 87.047 382.556 86.787 382.313 86.449C382.07 86.1023 381.949 85.695 381.949 85.227C381.949 84.4903 382.235 83.9053 382.807 83.472C383.388 83.0387 384.163 82.822 385.134 82.822C385.775 82.822 386.334 82.9217 386.811 83.121C387.296 83.3117 387.673 83.589 387.942 83.953C388.211 84.317 388.345 84.7417 388.345 85.227C388.345 85.695 388.219 86.1023 387.968 86.449C387.717 86.787 387.357 87.047 386.889 87.229ZM382.885 85.253C382.885 85.7557 383.084 86.1543 383.483 86.449C383.882 86.7437 384.432 86.891 385.134 86.891C385.836 86.891 386.386 86.7437 386.785 86.449C387.192 86.1543 387.396 85.76 387.396 85.266C387.396 84.7547 387.188 84.3517 386.772 84.057C386.365 83.7623 385.819 83.615 385.134 83.615C384.441 83.615 383.89 83.7623 383.483 84.057C383.084 84.3517 382.885 84.7503 382.885 85.253ZM385.134 91.285C385.94 91.285 386.568 91.1203 387.019 90.791C387.478 90.4617 387.708 90.0153 387.708 89.452C387.708 88.8887 387.478 88.4467 387.019 88.126C386.568 87.7967 385.94 87.632 385.134 87.632C384.337 87.632 383.708 87.7967 383.249 88.126C382.798 88.4467 382.573 88.8887 382.573 89.452C382.573 90.024 382.798 90.4747 383.249 90.804C383.7 91.1247 384.328 91.285 385.134 91.285ZM392.527 82.9V92H391.591V83.732H389.446V82.9H392.527ZM396.665 87.775C396.05 87.775 395.552 87.5497 395.17 87.099C394.798 86.6397 394.611 86.0417 394.611 85.305C394.611 84.5683 394.798 83.9747 395.17 83.524C395.552 83.0647 396.05 82.835 396.665 82.835C397.272 82.835 397.766 83.0603 398.147 83.511C398.529 83.9617 398.719 84.5597 398.719 85.305C398.719 86.0503 398.529 86.6483 398.147 87.099C397.766 87.5497 397.272 87.775 396.665 87.775ZM402.177 82.9H402.944L396.73 92H395.963L402.177 82.9ZM396.665 87.19C397.09 87.19 397.428 87.0253 397.679 86.696C397.939 86.358 398.069 85.8943 398.069 85.305C398.069 84.7157 397.939 84.2563 397.679 83.927C397.428 83.589 397.09 83.42 396.665 83.42C396.232 83.42 395.89 83.589 395.638 83.927C395.387 84.265 395.261 84.7243 395.261 85.305C395.261 85.8857 395.387 86.345 395.638 86.683C395.89 87.021 396.232 87.19 396.665 87.19ZM402.242 92.065C401.636 92.065 401.142 91.8397 400.76 91.389C400.379 90.9297 400.188 90.3317 400.188 89.595C400.188 88.8583 400.379 88.2647 400.76 87.814C401.142 87.3547 401.636 87.125 402.242 87.125C402.858 87.125 403.352 87.3547 403.724 87.814C404.106 88.2647 404.296 88.8583 404.296 89.595C404.296 90.3317 404.106 90.9297 403.724 91.389C403.352 91.8397 402.858 92.065 402.242 92.065ZM402.242 91.48C402.676 91.48 403.018 91.311 403.269 90.973C403.521 90.635 403.646 90.1757 403.646 89.595C403.646 89.0143 403.521 88.555 403.269 88.217C403.018 87.879 402.676 87.71 402.242 87.71C401.818 87.71 401.475 87.879 401.215 88.217C400.964 88.5463 400.838 89.0057 400.838 89.595C400.838 90.1843 400.964 90.648 401.215 90.986C401.475 91.3153 401.818 91.48 402.242 91.48Z" fill="white"/>
<path d="M492.51 142.822C493.715 142.822 494.638 143.221 495.279 144.018C495.92 144.807 496.241 145.925 496.241 147.372C496.241 148.386 496.068 149.244 495.721 149.946C495.374 150.648 494.889 151.181 494.265 151.545C493.641 151.9 492.913 152.078 492.081 152.078C491.18 152.078 490.46 151.913 489.923 151.584L490.3 150.83C490.733 151.116 491.323 151.259 492.068 151.259C493.073 151.259 493.862 150.943 494.434 150.31C495.006 149.669 495.292 148.741 495.292 147.528C495.292 147.303 495.279 147.056 495.253 146.787C495.028 147.281 494.668 147.667 494.174 147.944C493.68 148.213 493.112 148.347 492.471 148.347C491.873 148.347 491.34 148.234 490.872 148.009C490.413 147.784 490.053 147.467 489.793 147.06C489.533 146.644 489.403 146.163 489.403 145.617C489.403 145.062 489.537 144.573 489.806 144.148C490.075 143.723 490.443 143.398 490.911 143.173C491.388 142.939 491.921 142.822 492.51 142.822ZM492.614 147.554C493.073 147.554 493.476 147.467 493.823 147.294C494.178 147.121 494.456 146.882 494.655 146.579C494.854 146.276 494.954 145.938 494.954 145.565C494.954 145.218 494.859 144.898 494.668 144.603C494.486 144.308 494.213 144.07 493.849 143.888C493.485 143.706 493.052 143.615 492.549 143.615C491.89 143.615 491.353 143.797 490.937 144.161C490.53 144.516 490.326 144.993 490.326 145.591C490.326 146.189 490.53 146.666 490.937 147.021C491.353 147.376 491.912 147.554 492.614 147.554ZM500.029 146.631C501.346 146.631 502.304 146.869 502.902 147.346C503.509 147.814 503.812 148.473 503.812 149.322C503.812 149.851 503.686 150.323 503.435 150.739C503.192 151.155 502.824 151.484 502.33 151.727C501.836 151.961 501.229 152.078 500.51 152.078C499.86 152.078 499.24 151.974 498.651 151.766C498.07 151.549 497.602 151.263 497.247 150.908L497.702 150.167C498.005 150.479 498.404 150.735 498.898 150.934C499.392 151.125 499.925 151.22 500.497 151.22C501.251 151.22 501.832 151.051 502.239 150.713C502.655 150.375 502.863 149.924 502.863 149.361C502.863 148.737 502.629 148.265 502.161 147.944C501.702 147.623 500.922 147.463 499.821 147.463H497.884L498.352 142.9H503.331V143.732H499.171L498.859 146.631H500.029ZM506.836 147.775C506.221 147.775 505.723 147.55 505.341 147.099C504.969 146.64 504.782 146.042 504.782 145.305C504.782 144.568 504.969 143.975 505.341 143.524C505.723 143.065 506.221 142.835 506.836 142.835C507.443 142.835 507.937 143.06 508.318 143.511C508.7 143.962 508.89 144.56 508.89 145.305C508.89 146.05 508.7 146.648 508.318 147.099C507.937 147.55 507.443 147.775 506.836 147.775ZM512.348 142.9H513.115L506.901 152H506.134L512.348 142.9ZM506.836 147.19C507.261 147.19 507.599 147.025 507.85 146.696C508.11 146.358 508.24 145.894 508.24 145.305C508.24 144.716 508.11 144.256 507.85 143.927C507.599 143.589 507.261 143.42 506.836 143.42C506.403 143.42 506.061 143.589 505.809 143.927C505.558 144.265 505.432 144.724 505.432 145.305C505.432 145.886 505.558 146.345 505.809 146.683C506.061 147.021 506.403 147.19 506.836 147.19ZM512.413 152.065C511.807 152.065 511.313 151.84 510.931 151.389C510.55 150.93 510.359 150.332 510.359 149.595C510.359 148.858 510.55 148.265 510.931 147.814C511.313 147.355 511.807 147.125 512.413 147.125C513.029 147.125 513.523 147.355 513.895 147.814C514.277 148.265 514.467 148.858 514.467 149.595C514.467 150.332 514.277 150.93 513.895 151.389C513.523 151.84 513.029 152.065 512.413 152.065ZM512.413 151.48C512.847 151.48 513.189 151.311 513.44 150.973C513.692 150.635 513.817 150.176 513.817 149.595C513.817 149.014 513.692 148.555 513.44 148.217C513.189 147.879 512.847 147.71 512.413 147.71C511.989 147.71 511.646 147.879 511.386 148.217C511.135 148.546 511.009 149.006 511.009 149.595C511.009 150.184 511.135 150.648 511.386 150.986C511.646 151.315 511.989 151.48 512.413 151.48Z" fill="white"/>
<path d="M340.098 202.9V203.563L336.289 212H335.275L339.019 203.732H334.339V205.435H333.416V202.9H340.098ZM348.255 209.608H346.435V212H345.499V209.608H340.364V208.932L345.187 202.9H346.227L341.573 208.776H345.525V206.67H346.435V208.776H348.255V209.608ZM350.684 207.775C350.069 207.775 349.57 207.55 349.189 207.099C348.816 206.64 348.63 206.042 348.63 205.305C348.63 204.568 348.816 203.975 349.189 203.524C349.57 203.065 350.069 202.835 350.684 202.835C351.291 202.835 351.785 203.06 352.166 203.511C352.547 203.962 352.738 204.56 352.738 205.305C352.738 206.05 352.547 206.648 352.166 207.099C351.785 207.55 351.291 207.775 350.684 207.775ZM356.196 202.9H356.963L350.749 212H349.982L356.196 202.9ZM350.684 207.19C351.109 207.19 351.447 207.025 351.698 206.696C351.958 206.358 352.088 205.894 352.088 205.305C352.088 204.716 351.958 204.256 351.698 203.927C351.447 203.589 351.109 203.42 350.684 203.42C350.251 203.42 349.908 203.589 349.657 203.927C349.406 204.265 349.28 204.724 349.28 205.305C349.28 205.886 349.406 206.345 349.657 206.683C349.908 207.021 350.251 207.19 350.684 207.19ZM356.261 212.065C355.654 212.065 355.16 211.84 354.779 211.389C354.398 210.93 354.207 210.332 354.207 209.595C354.207 208.858 354.398 208.265 354.779 207.814C355.16 207.355 355.654 207.125 356.261 207.125C356.876 207.125 357.37 207.355 357.743 207.814C358.124 208.265 358.315 208.858 358.315 209.595C358.315 210.332 358.124 210.93 357.743 211.389C357.37 211.84 356.876 212.065 356.261 212.065ZM356.261 211.48C356.694 211.48 357.037 211.311 357.288 210.973C357.539 210.635 357.665 210.176 357.665 209.595C357.665 209.014 357.539 208.555 357.288 208.217C357.037 207.879 356.694 207.71 356.261 207.71C355.836 207.71 355.494 207.879 355.234 208.217C354.983 208.546 354.857 209.006 354.857 209.595C354.857 210.184 354.983 210.648 355.234 210.986C355.494 211.315 355.836 211.48 356.261 211.48Z" fill="white"/>
</svg>
